<svg xmlns="http://www.w3.org/2000/svg" xmlns:xlink="http://www.w3.org/1999/xlink" aria-hidden="true" role="img" class="icon w-6 h-6 text-primary-900" style="" width="1em" height="1em" viewBox="0 0 14 14" data-v-c3ad5561=""><g fill="none" stroke="currentColor" stroke-linecap="round" stroke-linejoin="round"><path d="M7.36 13.43h0a1 1 0 0 1-.72 0h0a9.67 9.67 0 0 1-6.14-9V1.5a1 1 0 0 1 1-1h11a1 1 0 0 1 1 1v2.92a9.67 9.67 0 0 1-6.14 9.01Z"></path><rect width="5" height="4" x="4.5" y="5.5" rx="1"></rect><path d="M8.5 5.5v-1a1.5 1.5 0 1 0-3 0v1"></path></g></svg>