<svg xmlns="http://www.w3.org/2000/svg" xmlns:xlink="http://www.w3.org/1999/xlink" aria-hidden="true" role="img" class="icon w-8 h-8 cursor-pointer outline-none border p-1 rounded" style="" width="1em" height="1em" viewBox="0 0 24 24" data-v-c3ad5561=""><path fill="currentColor" d="M4 7q-.425 0-.712-.288T3 6t.288-.712T4 5h16q.425 0 .713.288T21 6t-.288.713T20 7zm0 12q-.425 0-.712-.288T3 18t.288-.712T4 17h16q.425 0 .713.288T21 18t-.288.713T20 19zm0-6q-.425 0-.712-.288T3 12t.288-.712T4 11h16q.425 0 .713.288T21 12t-.288.713T20 13z"></path></svg>